<svg width="24" height="22" viewBox="0 0 24 22" fill="none" xmlns="http://www.w3.org/2000/svg">
<path d="M13.5 0.499969C8.22082 0.499969 3.85163 4.42063 3.11987 9.49998H-3.8147e-06L3.74999 13.25L7.49999 9.49998H4.63548C5.353 5.25028 9.04917 1.99999 13.5 1.99999C18.4629 1.99999 22.5 6.03709 22.5 11C22.5 15.9629 18.4629 20 13.5 20C10.7102 20 8.12332 18.7373 6.40283 16.5356L5.2207 17.4585C7.22752 20.0264 10.2451 21.5 13.5 21.5C19.2898 21.5 24 16.789 24 11C24 5.21096 19.2898 0.500013 13.5 0.499969Z" fill="#82B284"/>
</svg>
